<svg width="100" height="86" viewBox="0 0 100 86" fill="none" xmlns="http://www.w3.org/2000/svg">
<path d="M65.8807 35.7372C70.6092 35.7372 74.4592 31.9273 74.4592 27.2389C74.4592 22.5525 70.6092 18.7423 65.8807 18.7423C61.1491 18.7423 57.3061 22.5523 57.3061 27.2389C57.3061 31.9273 61.1491 35.7372 65.8807 35.7372Z" fill="white"/>
<path d="M18.7155 60.4029C18.0315 60.5997 17.3185 60.6982 16.5988 60.6982C15.9318 60.6982 15.2642 60.6125 14.5934 60.4337C13.105 60.0316 11.8063 59.2027 10.8087 58.0575H8.285C7.42153 58.0575 6.72183 57.3605 6.72183 56.5054V51.3012C5.43842 48.9668 5.52697 46.2454 6.72183 44.0526V40.3718C5.53281 38.1856 5.44548 35.4735 6.72183 33.1311V8.2094C6.72183 7.35453 7.42153 6.65732 8.285 6.65732H45.2662C46.0096 6.16994 46.8168 5.76708 47.7098 5.52968C48.4095 5.34564 49.1354 5.24912 49.8655 5.24912C51.1576 5.24912 52.4313 5.54767 53.5677 6.11039C53.7273 3.59533 55.0528 1.4082 56.9809 0H8.285C3.71913 0 0 3.68106 0 8.2094V56.5054C0 61.0333 3.71913 64.7148 8.285 64.7148H21.6956C20.2427 63.6809 19.1582 62.1712 18.7155 60.4029Z" fill="white"/>
<path d="M91.7158 0H74.7817C76.7123 1.4082 78.0353 3.59893 78.1904 6.11378C79.3371 5.54787 80.6076 5.24932 81.897 5.24932C83.5449 5.24932 85.1113 5.78167 86.453 6.65752H91.7158C92.5784 6.65752 93.2793 7.35453 93.2793 8.2096V16.6012C94.2303 18.4423 94.48 20.5199 93.9399 22.4878C93.7832 23.0701 93.5522 23.6173 93.2793 24.1414V30.3669C94.454 32.6603 94.5396 35.4356 93.2793 37.8695V56.5056C93.2793 57.3605 92.5784 58.0577 91.7158 58.0577H47.8197C46.8298 59.1931 45.5044 60.0384 44.0264 60.4353C43.3745 60.6113 42.7034 60.6982 42.033 60.6982C41.3097 60.6982 40.6001 60.5983 39.9163 60.4043C39.8278 60.7416 39.7072 61.0659 39.5807 61.385C38.8516 63.1837 37.4439 64.6291 35.6724 65.4406V69.8384C30.4006 70.4044 26.2706 74.7878 26.2706 80.1566V83.2152C26.2706 84.5944 27.4015 85.7143 28.7882 85.7143H71.216C72.6027 85.7143 73.7322 84.5946 73.7322 83.2152V80.1566C73.7322 74.7878 69.6033 70.4044 64.3316 69.8384V64.7148H91.716C96.2818 64.7148 100 61.0333 100 56.5054V8.2094C100 3.68106 96.2816 0 91.7158 0ZM68.6944 80.1566V80.7181H31.3088V80.1566C31.3088 77.161 33.771 74.7217 36.7993 74.7217H63.2037C66.2335 74.7217 68.6944 77.161 68.6944 80.1566Z" fill="white"/>
<path d="M51.5094 10.6806C51.0084 10.3903 50.4347 10.2454 49.8655 10.2454C49.5783 10.2454 49.2923 10.2809 49.0124 10.3551C48.1684 10.5807 47.4554 11.1244 47.0159 11.876L43.0162 18.7327C42.1086 20.2926 42.6421 22.2833 44.2214 23.1863L47.241 24.9111C47.2017 25.1802 47.1658 25.4464 47.1295 25.7146C47.7189 26.2403 48.253 26.8244 48.6541 27.5226L51.8359 32.977C52.8555 34.7339 53.1222 36.773 52.5879 38.7491C52.2163 40.0847 51.5066 41.2705 50.5164 42.2141C50.9761 42.6515 51.3599 43.1549 51.6952 43.6887L54.5087 42.0804C55.7693 43.0306 57.1076 43.8761 58.5927 44.4918V47.8525C58.5927 49.6496 60.0679 51.1075 61.8852 51.1075H69.8771C71.6908 51.1075 73.1659 49.6496 73.1659 47.8525V44.4918C74.651 43.8761 75.9896 43.0304 77.247 42.0804L80.2552 43.7972C80.7606 44.0855 81.3306 44.2344 81.9031 44.2344C82.1836 44.2344 82.4636 44.197 82.7466 44.1243C83.5869 43.9003 84.3134 43.3535 84.747 42.6034L88.7425 35.7454C89.6513 34.187 89.114 32.1919 87.5373 31.2916L84.5193 29.5639C84.6194 28.7932 84.7632 28.0378 84.7632 27.2391C84.7632 26.4458 84.6194 25.6828 84.5193 24.9115L87.5373 23.1867C88.2996 22.7547 88.8468 22.0413 89.0678 21.2092C89.296 20.3721 89.1786 19.4831 88.7425 18.7331L84.747 11.8784C84.1377 10.8329 83.0302 10.2458 81.8972 10.2458C81.3367 10.2458 80.7737 10.3861 80.2552 10.6826L77.247 12.3991C75.9896 11.4476 74.6439 10.6023 73.1659 9.9894V6.63186C73.1659 4.8316 71.6908 3.36984 69.8771 3.36984H61.8852C60.0679 3.36984 58.5927 4.8316 58.5927 6.63186V9.9892C57.1114 10.6019 55.7693 11.4474 54.5087 12.3989L51.5094 10.6806ZM65.8809 15.4122C72.4629 15.4122 77.8162 20.7168 77.8162 27.2387C77.8162 33.7611 72.4629 39.067 65.8809 39.067C59.2996 39.067 53.9455 33.7609 53.9455 27.2387C53.9455 20.7168 59.2996 15.4122 65.8809 15.4122Z" fill="white"/>
<path d="M35.0991 58.5766V55.907C36.2782 55.4211 37.3402 54.7522 38.3436 53.9935L40.7277 55.3535C41.1271 55.5859 41.5739 55.7054 42.0329 55.7054C42.2578 55.7054 42.4827 55.673 42.7008 55.6169C43.3686 55.4362 43.9448 55.002 44.2863 54.4115L47.4685 48.9658C48.1882 47.7316 47.7574 46.146 46.5072 45.434L44.1137 44.0617C44.1857 43.4497 44.296 42.8486 44.296 42.2175C44.296 41.5849 44.1857 40.98 44.1137 40.3687L46.5072 39.0007C47.1069 38.6542 47.5425 38.0908 47.7285 37.4262C47.9082 36.7596 47.8066 36.0578 47.4685 35.4631L44.2863 30.0203C43.8085 29.1912 42.9289 28.7278 42.0267 28.7278C41.5799 28.7278 41.1372 28.8373 40.7279 29.0745L38.3438 30.4376C37.3404 29.6808 36.2752 29.0098 35.0993 28.5214V25.8597C35.0993 24.4287 33.9305 23.2701 32.4875 23.2701H26.1447C24.6985 23.2701 23.5325 24.4287 23.5325 25.8597V28.5214C22.3598 29.0098 21.2882 29.6808 20.2924 30.4376L17.9055 29.0715C17.5075 28.8421 17.0615 28.7276 16.6089 28.7276C16.3812 28.7276 16.1501 28.7566 15.925 28.8161C15.2571 28.9922 14.6912 29.423 14.3394 30.0165L11.1639 35.4629C10.45 36.7012 10.8738 38.2843 12.1211 39.0005L14.5179 40.3685C14.4465 40.9798 14.3352 41.5847 14.3352 42.2173C14.3352 42.8482 14.4467 43.4495 14.5179 44.0593L12.1211 45.4292C10.8738 46.142 10.45 47.7278 11.1639 48.9654L14.339 54.4111C14.6908 55.0016 15.2569 55.4358 15.9246 55.6165C16.1464 55.6726 16.3744 55.705 16.5986 55.705C17.0583 55.705 17.5043 55.5855 17.9051 55.3531L20.2861 53.9931C21.288 54.7518 22.3594 55.4208 23.5323 55.9066V58.5762C23.5323 60.0023 24.6983 61.1622 26.1445 61.1622H32.4873C33.9303 61.1628 35.0991 60.0027 35.0991 58.5766ZM22.1123 42.2173C22.1123 38.2729 25.3399 35.0788 29.3093 35.0788C33.2957 35.0788 36.5229 38.2727 36.5229 42.2173C36.5229 46.155 33.2957 49.349 29.3093 49.349C25.3399 49.3488 22.1123 46.155 22.1123 42.2173Z" fill="white"/>
</svg>
