<svg width="78" height="85" viewBox="0 0 78 85" fill="none" xmlns="http://www.w3.org/2000/svg">
<path d="M77.9166 30.7099V19.1321V17.8638C77.9166 11.2293 72.1694 5.8243 65.0282 5.63759V5.63912V8.57634V8.57911V11.532V11.5379V13.2155C65.0282 17.5215 61.59 21.0244 57.3644 21.0244C53.1386 21.0244 49.7004 17.5215 49.7004 13.2155V11.4985V8.5585V5.61852H27.9686V8.5585V11.4985V13.2155C27.9686 17.5215 24.5305 21.0244 20.3043 21.0244C16.0784 21.0244 12.6405 17.5215 12.6405 13.2155V11.5631V11.5529V8.59049V8.58772V5.65081V5.64774C5.6174 5.95072 0 11.3062 0 17.8623V19.1305V30.7084V71.4871C0 78.9364 5.95041 85.0003 13.2628 85.0003H64.6532C71.9647 85.0003 77.9154 78.9364 77.9154 71.4871V30.7099H77.9166ZM72.1449 71.4886C72.1449 75.6977 68.7843 79.1203 64.6532 79.1203H13.2643C9.13348 79.1203 5.77319 75.6977 5.77319 71.4886V30.7099H72.1449V71.4886Z" fill="white"/>
<path d="M16.9701 3.39861V5.6179V8.55789V11.4979V13.2149C16.9701 15.0924 18.463 16.6135 20.3059 16.6135C22.1482 16.6135 23.6417 15.0924 23.6417 13.2149V11.4979V8.55789V5.6179V3.39861C23.642 1.52105 22.1485 0 20.3062 0C18.463 0.00153797 16.9701 1.52259 16.9701 3.39861Z" fill="white"/>
<path d="M57.3656 0.00152588C55.5227 0.00152588 54.0291 1.52258 54.0291 3.40013V5.61943V8.55941V11.4994V13.2164C54.0291 15.0939 55.5224 16.615 57.3656 16.615C59.2088 16.615 60.7023 15.0939 60.7023 13.2164V11.4979V8.55788V5.61789V3.3986C60.6996 1.52258 59.2076 0.00152588 57.3656 0.00152588Z" fill="white"/>
<path d="M29.3032 71.322C33.0659 71.322 35.9075 70.2513 37.8286 68.1092C39.7464 65.9674 40.7073 63.4839 40.7073 60.6587C40.7073 57.9712 39.8864 55.8522 38.2428 54.3019C37.7969 53.8855 37.3932 53.5523 37.0325 53.3056C36.3719 52.8519 36.3224 52.5277 36.9443 52.0368C37.2936 51.7597 37.6369 51.4253 37.9729 51.0316C39.1184 49.6806 39.6911 48.0227 39.6911 46.0559C39.6911 43.2796 38.7337 41.0637 36.8133 39.4128C34.8928 37.762 32.3676 36.9373 29.2368 36.9373C27.5515 36.9373 26.1283 37.1446 24.9686 37.559C23.8096 37.9739 22.8099 38.5716 21.9661 39.3556C20.8372 40.4611 20.0097 41.6663 19.4813 42.9726C19.1341 44.0148 18.8929 45.1015 18.7598 46.2282C18.6647 47.035 19.2938 47.6927 20.09 47.6927H23.2166C24.0137 47.6927 24.6277 47.0295 24.7434 46.2254C24.8838 45.2491 25.1978 44.4251 25.6841 43.7548C26.3985 42.773 27.5152 42.2805 29.0333 42.2805C30.3566 42.2805 31.3806 42.6795 32.1107 43.478C32.8377 44.2762 33.2033 45.3125 33.2033 46.5872C33.2033 48.5542 32.489 49.859 31.063 50.5035C30.4432 50.7904 29.4659 50.9784 28.1357 51.0688C27.341 51.1205 26.6943 51.7837 26.6943 52.5936V54.3521C26.6943 55.1632 27.3426 55.815 28.1387 55.8593C29.5483 55.9356 30.6307 56.1294 31.3825 56.4434C33.1254 57.1813 33.997 58.6485 33.997 60.842C33.997 62.5018 33.5263 63.7706 32.5874 64.6549C31.6484 65.5377 30.5456 65.9785 29.2833 65.9785C27.2233 65.9785 25.8016 65.1732 25.0208 63.5611C24.7657 63.0287 24.5882 62.4129 24.4874 61.7122C24.3717 60.9081 23.7441 60.2447 22.9458 60.2447H19.5019C18.7051 60.2447 18.0774 60.9023 18.1653 61.7091C18.3809 63.7017 18.8727 65.3627 19.6383 66.6903C21.4435 69.7788 24.6661 71.322 29.3032 71.322Z" fill="white"/>
<path d="M47.2347 47.4624H52.0581C52.8543 47.4624 53.5006 48.12 53.5006 48.9324V69.022C53.5006 69.8331 54.1477 70.492 54.9435 70.492H58.6594C59.4556 70.492 60.102 69.8328 60.102 69.022V38.5686C60.102 37.7575 59.4553 37.0986 58.6594 37.0986H56.1638C55.3677 37.0986 54.711 37.4044 54.6349 37.7716C54.5942 37.9654 54.5407 38.1866 54.4716 38.4333C54.1872 39.4311 53.7642 40.2293 53.209 40.8279C52.3975 41.7021 51.3447 42.2856 50.0528 42.5784C49.4499 42.7162 48.5085 42.827 47.2317 42.9143C46.4371 42.966 45.7916 43.6522 45.7916 44.4618V45.9893C45.7916 46.8035 46.4398 47.4624 47.2347 47.4624Z" fill="white"/>
</svg>
