<svg width="38" height="51" viewBox="0 0 38 51" fill="none" xmlns="http://www.w3.org/2000/svg">
<path fill-rule="evenodd" clip-rule="evenodd" d="M15.1326 8.37752L8.67148 0.587899C8.50145 0.293951 7.99135 0.146973 7.6513 0.146973C7.14121 0.146973 6.80117 0.293951 6.63114 0.587899L0.170039 8.37752C1.03752e-05 8.52449 0 8.81844 0 9.11239V9.25936V46.7377C0 49.0893 2.21039 51 4.93085 51H10.7118C13.4323 51 15.6427 49.0893 15.6427 46.7377V9.25936V9.11239C15.4726 8.81844 15.3026 8.52449 15.1326 8.37752ZM7.48128 3.23343L11.562 8.08357H3.57062L7.48128 3.23343ZM2.38042 10.4352H8.67148V40.4179H6.29109V18.3718C6.29109 17.7839 5.61097 17.196 4.93085 17.196C4.25074 17.196 3.57062 17.7839 3.57062 18.3718V40.4179H2.21038V10.4352H2.38042ZM12.7522 46.7377C12.7522 47.9135 11.732 48.7954 10.3718 48.7954H4.5908C3.23057 48.7954 2.21038 47.9135 2.21038 46.7377V42.6225H12.5821V46.7377H12.7522ZM12.7522 40.2709H11.3919V10.4352H12.7522V40.2709Z" fill="#094E4B"/>
<path fill-rule="evenodd" clip-rule="evenodd" d="M37.4056 39.0951C37.2356 41.8876 35.7053 43.2104 34.3451 44.2392C32.9849 45.415 32.1347 46.1499 32.9849 48.5014C33.3249 49.5303 32.8148 50.1181 32.4748 50.4121C32.1347 50.706 31.2846 51 30.2644 50.4121C28.7341 49.8242 26.5238 47.9135 24.8235 45.8559C23.2932 43.9452 21.4229 41.1527 21.4229 38.5072C21.5929 36.4496 22.6131 34.6859 24.1434 33.3631C23.2932 32.4813 22.7831 31.3055 22.7831 29.9827C22.7831 29.2478 22.9532 28.366 23.2932 27.7781V4.99712C23.2932 2.20461 25.8437 0 29.0742 0C32.3048 0 34.8552 2.20461 34.8552 4.99712V26.8962C35.5353 27.7781 35.8754 28.8069 35.8754 29.8357C35.8754 31.0115 35.3653 32.1873 34.6852 33.2161C36.5555 34.6859 37.5756 36.7435 37.4056 39.0951ZM32.3047 4.99712C32.3047 3.52738 30.9445 2.35158 29.2442 2.35158C27.544 2.35158 26.1837 3.52738 26.1837 4.99712V24.9856C26.8638 24.6916 27.714 24.3977 28.5641 24.2507H28.7342H30.2644H30.4344C30.6045 24.2507 30.6045 24.2507 30.7745 24.2507H30.9445C31.4546 24.3977 31.9647 24.5447 32.3047 24.6916V4.99712ZM31.2846 26.8962C31.2846 26.8962 31.1146 26.8962 31.2846 26.8962C31.1146 26.8962 31.1145 26.7493 31.1145 26.7493C31.1145 26.7493 31.1146 26.7493 30.9445 26.7493C30.9445 26.7493 30.9445 26.7493 30.7745 26.7493C30.7745 26.7493 30.7745 26.7493 30.6045 26.7493C30.6045 26.7493 30.6045 26.7493 30.4344 26.7493H30.2644H30.0944H28.7342H28.5641C28.5641 26.7493 28.5641 26.7493 28.3941 26.7493C28.3941 26.7493 28.3941 26.7493 28.2241 26.7493C26.6938 27.1902 25.6736 28.513 25.6736 29.8357C25.6736 30.8645 26.1837 31.8934 27.2039 32.4813C27.2039 32.4813 27.2039 32.4813 27.3739 32.4813L27.544 32.6282C27.714 32.6282 27.714 32.7752 27.884 32.7752H28.054C28.2241 32.7752 28.2241 32.7752 28.3941 32.9222C28.3941 32.9222 28.3941 32.9222 28.5641 32.9222H28.7342H28.9042C28.9042 32.9222 28.9042 32.9222 29.0742 32.9222H29.2442C29.4143 32.9222 29.4143 32.9222 29.5843 32.9222C29.7543 32.9222 29.7543 32.9222 29.9244 32.9222C30.0944 32.9222 30.0944 32.9222 30.0944 32.9222C30.0944 32.9222 30.0944 32.9222 30.2644 32.9222H30.4344H30.6045C30.7745 32.9222 30.7745 32.9222 30.9445 32.7752C31.1146 32.7752 31.2846 32.6282 31.4546 32.6282C31.4546 32.6282 31.4546 32.6282 31.6246 32.6282C31.6246 32.6282 31.7947 32.6282 31.7947 32.4813C31.7947 32.4813 31.7947 32.4813 31.9647 32.3343C32.8148 31.7464 33.495 30.7176 33.495 29.6888C33.3249 28.6599 32.4748 27.4841 31.2846 26.8962ZM32.8148 34.6859C32.6448 34.8329 32.6448 34.8329 32.8148 34.6859C32.6448 34.8329 32.6448 34.8328 32.4748 34.8328C32.4748 34.8328 32.4748 34.8328 32.3047 34.8328C32.1347 34.9798 31.7947 34.9798 31.6246 35.1268C31.4546 35.1268 31.2846 35.1268 31.2846 35.2738C30.9445 35.2738 30.7745 35.4207 30.4344 35.4207C30.2644 35.4207 30.2644 35.4207 30.0944 35.4207C30.0944 35.4207 30.0944 35.4207 29.9244 35.4207C29.7543 35.4207 29.5843 35.4207 29.5843 35.4207C29.4143 35.4207 29.2442 35.4207 29.2442 35.4207C29.2442 35.4207 29.2442 35.4207 29.0742 35.4207C28.9042 35.4207 28.9042 35.4207 28.7342 35.4207C28.3941 35.4207 27.884 35.2738 27.544 35.1268C27.3739 35.1268 27.3739 34.9798 27.2039 34.9798C27.0339 34.9798 27.0339 34.8328 26.8638 34.8328C26.8638 34.8328 26.6938 34.8329 26.6938 34.6859C25.5036 35.5677 24.6534 36.8905 24.6534 38.5072C24.4834 40.1239 25.6736 42.4755 27.714 44.6801C28.7341 45.8559 29.7543 46.7377 30.4344 47.3256C30.2644 44.8271 31.6246 43.6513 32.9849 42.4755C34.1751 41.4467 35.0252 40.7118 35.1953 38.8012C34.8552 37.3314 34.005 35.7147 32.8148 34.6859Z" fill="#094E4B"/>
</svg>
