<svg width="61" height="51" viewBox="0 0 61 51" fill="none" xmlns="http://www.w3.org/2000/svg">
<path fill-rule="evenodd" clip-rule="evenodd" d="M57.7024 0H3.03033C2.39828 0 1.76623 0.314817 1.29219 0.629632C0.818158 1.10185 0.660156 1.57407 0.660156 2.36111V36.5185C0.660156 37.1482 0.97617 37.7778 1.29219 38.25C1.76623 38.7222 2.24027 38.8796 3.03033 38.8796H24.0459V46.5926H15.5132C14.8812 46.5926 14.4072 46.9074 13.9331 47.2222C13.6171 47.537 13.3011 48.1667 13.3011 48.7963C13.3011 49.4259 13.6171 49.8981 13.9331 50.3704C14.2491 50.6852 14.8812 51 15.5132 51H45.2194C45.8515 51 46.3255 50.6852 46.7996 50.3704C47.1156 50.0556 47.4316 49.4259 47.4316 48.7963C47.4316 48.1667 47.1156 47.6944 46.7996 47.2222C46.4835 46.9074 45.8515 46.5926 45.2194 46.5926H36.6868V38.8796H57.7024C58.3344 38.8796 58.9665 38.5648 59.4405 38.25C59.9145 37.7778 60.0725 37.3056 60.0725 36.5185V2.36111C60.0725 1.73148 59.7565 1.10185 59.4405 0.629632C59.1245 0.15741 58.3344 0 57.7024 0ZM56.2803 35.7315H3.97839V3.30555H56.9123V35.7315H56.2803Z" fill="#094E4B"/>
<path fill-rule="evenodd" clip-rule="evenodd" d="M13.8746 20.8961L23.3322 25.082C23.6528 25.2371 23.8131 25.2371 24.1336 25.2371C24.4542 25.2371 24.7748 25.082 25.0954 24.927C25.5763 24.6169 25.8969 23.9968 25.8969 23.3766C25.8969 22.7565 25.416 22.1364 24.7748 21.8263L18.8438 19.1907L24.7748 16.5551C25.416 16.245 25.8969 15.6249 25.8969 15.0047C25.8969 14.3846 25.5763 13.9195 25.0954 13.4544C24.7748 13.2993 24.4542 13.1443 24.1336 13.1443C23.8131 13.1443 23.6528 13.1443 23.3322 13.2993L13.8746 17.4853C13.2334 17.7954 12.7526 18.4155 12.7526 19.0356V19.1907C12.7526 19.9659 13.2334 20.586 13.8746 20.8961Z" fill="#094E4B"/>
<path fill-rule="evenodd" clip-rule="evenodd" d="M25.6972 29.7045C26.0226 30.1788 26.6735 30.495 27.1616 30.495C27.9752 30.495 28.6261 30.0207 28.9515 29.2302L35.2976 10.2582C35.4603 9.78391 35.2976 9.15152 34.9721 8.67722C34.6467 8.20292 33.9958 7.88672 33.5077 7.88672C32.6941 7.88672 32.0432 8.36101 31.7177 9.15151L25.3717 28.1235C25.3717 28.5978 25.3717 29.2302 25.6972 29.7045Z" fill="#094E4B"/>
<path fill-rule="evenodd" clip-rule="evenodd" d="M34.8355 14.8718C34.8355 15.5 35.3163 16.1282 35.9575 16.4423L41.8885 19.1122L35.9575 21.782C35.3163 22.0961 34.8355 22.7243 34.8355 23.3525C34.8355 23.9807 35.1561 24.4518 35.6369 24.923C35.9575 25.08 36.2781 25.2371 36.5987 25.2371C36.9193 25.2371 37.0796 25.2371 37.4002 25.08L46.8577 20.8397C47.4989 20.5256 47.9798 19.8974 47.9798 19.2692V19.1122C47.9798 18.484 47.4989 17.8558 46.8577 17.5417L37.4002 13.3013C37.2399 13.1443 36.9193 13.1443 36.5987 13.1443C36.2781 13.1443 35.9575 13.3013 35.6369 13.4584C35.1561 13.6154 34.8355 14.2436 34.8355 14.8718Z" fill="#094E4B"/>
</svg>
