<svg width="39" height="38" viewBox="0 0 39 38" fill="none" xmlns="http://www.w3.org/2000/svg">
<path d="M19.6743 0.763184C9.17646 0.763184 0.635742 9.0804 0.635742 19.3035C0.635742 29.5258 9.17646 37.8438 19.6743 37.8438C30.1713 37.8438 38.7128 29.5258 38.7128 19.3035C38.7128 9.0804 30.1728 0.763184 19.6743 0.763184ZM24.409 19.9562H21.3115C21.3115 24.7753 21.3115 30.7072 21.3115 30.7072H16.7218C16.7218 30.7072 16.7218 24.8328 16.7218 19.9562H14.54V16.1564H16.7218V13.6987C16.7218 11.9384 17.5807 9.18794 21.3537 9.18794L24.7548 9.20063V12.8891C24.7548 12.8891 22.6881 12.8891 22.2862 12.8891C21.8844 12.8891 21.3131 13.0848 21.3131 13.9242V16.1572H24.81L24.409 19.9562Z" fill="#0EA8B8"/>
</svg>
