<svg width="39" height="38" viewBox="0 0 39 38" fill="none" xmlns="http://www.w3.org/2000/svg">
<path d="M38.5955 19.9967C38.0172 18.2609 36.1038 17.313 34.3213 17.8761L30.9038 18.9585C30.147 16.6872 29.3402 14.2723 28.5834 12.0057C30.6611 11.3475 32.0009 10.9234 32.0009 10.9234C33.7834 10.3602 34.7568 8.49686 34.1785 6.76098C33.6002 5.02511 31.6868 4.07721 29.9043 4.64039L26.4868 5.7227C25.8109 3.69944 25.3754 2.39464 25.3754 2.39464C24.7995 0.661085 22.886 -0.289127 21.1035 0.274047C19.321 0.837222 18.3476 2.70056 18.9259 4.43644L20.0373 7.7645L12.8977 10.0241C12.2242 8.00089 11.7887 6.69609 11.7887 6.69609C11.208 4.96021 9.29463 4.01 7.51449 4.57549C5.73197 5.13867 4.75623 7.00201 5.33692 8.73557L6.44831 12.0659L2.92135 13.183C1.25545 13.7694 0.320161 15.5192 0.817553 17.2017C1.33636 18.9538 3.2474 20.0222 5.01563 19.4637C5.02991 19.4591 6.41737 19.021 8.54259 18.3466L10.863 25.2994L7.336 26.4165C5.67248 27.0028 4.73719 28.7526 5.2322 30.4352C5.75101 32.1873 7.66204 33.258 9.43028 32.6971C9.44456 32.6925 10.832 32.2545 12.9596 31.58L14.1067 35.0147C14.7088 36.6347 16.5056 37.5455 18.2334 37.0635C20.0326 36.5582 21.1321 34.6972 20.5562 32.9752C20.5514 32.9613 20.1016 31.6125 19.4114 29.5406C21.7437 28.8036 24.2235 28.0179 26.551 27.2809L27.6981 30.7156C28.3002 32.3356 30.097 33.2464 31.8248 32.7643C33.624 32.2591 34.7235 30.3981 34.1476 28.6761C34.1428 28.6622 33.693 27.3134 33.0005 25.2414C35.0781 24.5832 36.4179 24.1591 36.4179 24.1591C38.1981 23.596 39.1738 21.7326 38.5955 19.9967ZM17.3148 23.2599C16.5556 20.9887 15.7512 18.5737 14.9944 16.3071C17.3267 15.5701 19.8065 14.7845 22.134 14.0475L24.4544 21.0003L17.3148 23.2599Z" fill="white"/>
</svg>
