<svg width="39" height="38" viewBox="0 0 39 38" fill="none" xmlns="http://www.w3.org/2000/svg">
<path d="M26.1108 17.4526H14.671L14.0001 13.6979L15.6454 13.1194C16.8019 12.7129 17.5789 11.6331 17.5789 10.4327V9.12031C17.5789 4.52586 21.4063 0.788086 26.1108 0.788086C30.8153 0.788086 34.6427 4.52586 34.6427 9.12031C34.6427 13.7148 30.8152 17.4526 26.1108 17.4526ZM20.7342 13.5836H26.1108C28.6307 13.5836 30.6809 11.5814 30.6809 9.12041C30.6809 6.65942 28.6307 4.65721 26.1108 4.65721C23.5909 4.65721 21.5407 6.65942 21.5407 9.12041V10.4328C21.5406 11.555 21.2524 12.6324 20.7342 13.5836Z" fill="white"/>
<path d="M30.2291 16.935H29.0706C28.1481 17.2694 27.1511 17.4527 26.1108 17.4527H21.6973V21.2041H17.7478V13.3895C17.7478 8.79502 13.9205 5.05713 9.21598 5.05713C4.51151 5.05713 0.684113 8.79491 0.684113 13.3895C0.684113 17.984 4.51151 21.7218 9.21598 21.7218H10.3744C7.12463 22.8996 4.80252 25.9578 4.80252 29.5364C4.80252 34.1309 8.62981 37.8687 13.3344 37.8687C18.0389 37.8687 21.8663 34.1309 21.8663 29.5364V28.224C21.8663 27.9468 21.9094 27.6767 21.9874 27.4191C22.9614 30.9737 26.2866 33.5996 30.2292 33.5996C34.9337 33.5996 38.7611 29.8617 38.7611 25.2672C38.761 20.6728 34.9335 16.935 30.2291 16.935ZM4.64579 13.3895C4.64579 10.9285 6.69594 8.92626 9.21587 8.92626C11.7358 8.92626 13.786 10.9285 13.786 13.3895V18.6404C12.812 18.1343 11.7088 17.8527 10.5596 17.8527H9.21577C6.69594 17.8527 4.64579 15.8505 4.64579 13.3895ZM17.9044 28.224V29.5364C17.9044 31.9974 15.8542 33.9996 13.3343 33.9996C10.8144 33.9996 8.7642 31.9974 8.7642 29.5364C8.7642 27.0754 10.8144 25.0732 13.3343 25.0732H18.7109C18.1927 26.0243 17.9044 27.1018 17.9044 28.224ZM30.2291 29.7305C27.7092 29.7305 25.659 27.7283 25.659 25.2673V20.0164C26.633 20.5225 27.7362 20.804 28.8854 20.804H30.2292C32.7491 20.804 34.7993 22.8062 34.7993 25.2672C34.7992 27.7283 32.749 29.7305 30.2291 29.7305Z" fill="white"/>
</svg>
