<svg width="42" height="30" viewBox="0 0 42 30" fill="none" xmlns="http://www.w3.org/2000/svg">
<path d="M40.8182 10.0222C41.1266 9.78728 41.5926 10.0092 41.5926 10.3812V25.9012C41.5926 27.9113 39.8794 29.543 37.7686 29.543H4.61995C2.50918 29.543 0.795898 27.9113 0.795898 25.9012V10.3877C0.795898 10.0092 1.24821 9.79381 1.5703 10.0288C3.35212 11.3471 5.72331 13.0244 13.8511 18.6503C15.5301 19.8185 18.3673 22.279 21.1977 22.2594C24.0417 22.279 26.9338 19.7728 28.5511 18.6503C36.6721 13.0309 39.0364 11.3471 40.8182 10.0222ZM21.1908 19.8315C23.0412 19.8642 25.7002 17.6191 27.0366 16.6923C37.611 9.38264 38.4128 8.74957 40.8525 6.92868C41.3117 6.5893 41.5858 6.05413 41.5858 5.49285V4.05049C41.5858 2.04033 39.8725 0.408711 37.7617 0.408711H4.61995C2.50918 0.402184 0.795898 2.03381 0.795898 4.04397V5.48632C0.795898 6.0476 1.07002 6.56972 1.52918 6.92215C3.9689 8.73651 4.77072 9.38264 15.3451 16.6858C16.6815 17.6125 19.3473 19.8577 21.1908 19.8315Z" fill="#6CF2FF"/>
</svg>
