<svg width="67" height="61" viewBox="0 0 67 61" fill="none" xmlns="http://www.w3.org/2000/svg">
<path d="M18.2656 8.53095C18.2656 3.81954 22.0852 0 26.7972 0C31.5086 0 35.3286 3.81954 35.3286 8.53095C35.3286 13.2424 31.5086 17.0618 26.7972 17.0618C22.0852 17.0619 18.2656 13.2424 18.2656 8.53095ZM30.8971 22.8739C30.9826 21.0163 31.6221 19.2969 32.6509 17.8756C31.9289 17.7244 31.1826 17.644 30.4169 17.644H23.1786C22.415 17.644 21.6698 17.7237 20.9515 17.8731C22.0463 19.3917 22.7012 21.2463 22.7119 23.254C24.0428 22.5221 25.5698 22.1053 27.1918 22.1053C28.5075 22.1053 29.76 22.3794 30.8971 22.8739ZM32.3412 23.6396C34.8192 25.1936 36.5569 27.8219 36.8747 30.8742C37.8844 31.3461 39.0064 31.6184 40.1952 31.6184C44.5364 31.6184 48.0551 28.0993 48.0551 23.7582C48.0551 19.4166 44.5364 15.8983 40.1952 15.8983C35.8937 15.8984 32.4065 19.3543 32.3412 23.6396ZM27.1916 39.7337C31.5321 39.7337 35.0511 36.2136 35.0511 31.8738C35.0511 27.5333 31.5321 24.0138 27.1916 24.0138C22.8508 24.0138 19.3303 27.5332 19.3303 31.8738C19.3305 36.2136 22.8508 39.7337 27.1916 39.7337ZM30.5258 40.2686H23.8569C18.3079 40.2686 13.7923 44.7838 13.7923 50.3336V58.4905L13.8136 58.6182L14.375 58.7928C19.6709 60.4468 24.2718 61 28.0591 61C35.4547 61 39.7431 58.8911 40.0073 58.7562L40.5326 58.4903H40.5883V50.3335C40.5885 44.7838 36.0756 40.2686 30.5258 40.2686ZM43.531 32.1548H36.9122C36.8403 34.8032 35.7101 37.188 33.9226 38.9023C38.8552 40.3691 42.4642 44.9429 42.4642 50.346V52.8594C48.998 52.6188 52.7639 50.768 53.0119 50.6432L53.5373 50.376H53.5931V42.2177C53.5938 36.6694 49.0787 32.1548 43.531 32.1548ZM45.3002 15.7307C47.7784 17.2849 49.5159 19.9133 49.833 22.9656C50.8428 23.4375 51.9648 23.7093 53.1535 23.7093C57.4955 23.7093 61.014 20.1907 61.014 15.8502C61.014 11.5085 57.4954 7.99029 53.1535 7.99029C48.8526 7.98979 45.3657 11.4464 45.3002 15.7307ZM56.4886 24.2459H49.8711C49.7992 26.8942 48.6691 29.2791 46.8816 30.9932C51.8142 32.4595 55.4231 37.034 55.4231 42.437V44.9504C61.9563 44.7103 65.723 42.8597 65.971 42.7341L66.4957 42.4678H66.5521V34.3084C66.5529 28.7606 62.0378 24.2459 56.4886 24.2459ZM13.4002 31.6185C14.9379 31.6185 16.3677 31.1693 17.5802 30.4047C17.9658 27.8918 19.3131 25.6955 21.2369 24.2004C21.245 24.0529 21.2585 23.9073 21.2585 23.7583C21.2585 19.4167 17.7388 15.8984 13.4002 15.8984C9.05784 15.8984 5.53961 19.4166 5.53961 23.7583C5.53961 28.1002 9.05771 31.6185 13.4002 31.6185ZM20.459 38.9023C18.6798 37.1962 17.5534 34.8244 17.4705 32.1915C17.2258 32.1732 16.9828 32.1548 16.7327 32.1548H10.0646C4.51477 32.1548 0 36.6694 0 42.2184V50.376L0.0206086 50.503L0.582751 50.6783C4.83035 52.0066 8.6227 52.617 11.9165 52.8078V50.3451C11.9171 44.943 15.5252 40.3683 20.459 38.9023Z" fill="#1C7982"/>
</svg>
