<svg width="60" height="53" viewBox="0 0 60 53" fill="none" xmlns="http://www.w3.org/2000/svg">
<path d="M46.6065 9.62659C47.8252 9.62659 49.0193 9.30653 50.0657 8.6787L60 2.80673V0.0615511L48.8223 6.57366C47.9729 7.06606 47.0127 7.32458 46.0402 7.31227L31.2433 7.13993C30.5047 6.8691 29.9138 6.69676 29.6922 6.61059C25.0636 5.57653 21.4444 5.98277 18.9824 6.64752C17.1358 7.13993 15.1662 6.95527 13.4181 6.15511L0 0V24.5958L1.39105 25.359C3.44686 26.4793 5.08412 28.215 6.10587 30.3201L5.31801 30.9602C3.20066 32.499 2.74518 35.478 4.13623 37.5831C4.91178 38.6048 6.00739 39.2573 7.26303 39.4789C7.41075 39.4912 7.63233 39.5035 7.79237 39.5035C8.24785 39.5281 8.69101 39.4789 9.07263 39.4173C9.09725 40.476 9.34346 41.387 9.97128 42.2487C10.8084 43.4181 12.1379 43.9475 13.5659 44.0213C13.9352 44.046 14.3168 44.0583 14.6122 44.0829C14.4768 45.2031 14.7969 46.348 15.4986 47.2835C16.2741 48.3053 17.3697 48.9577 18.6254 49.1793C18.7731 49.1916 18.9947 49.2039 19.1547 49.2039C20.2749 49.2655 21.3459 48.9454 22.2076 48.3176L22.6754 47.9606C22.7862 48.6377 22.9832 49.2532 23.4017 49.8071C24.0295 50.6689 24.9774 51.2474 26.0977 51.4567C26.2454 51.469 26.3931 51.469 26.5531 51.4813C27.4518 51.5306 28.3627 51.2721 29.1506 50.7181H29.2245L29.7784 51.4936C30.7509 52.897 32.7698 53.2294 34.1732 52.2569C35.3426 51.4198 35.8104 49.7825 35.2811 48.4776L35.3796 48.6254C36.3028 49.9918 38.0509 50.5827 39.5773 49.9549C41.2638 49.2655 41.9409 47.4436 41.4977 45.8802C42.6303 47.1481 44.5753 47.3943 45.9787 46.4218L46.0525 46.348C47.4559 45.3755 47.8621 43.5166 47.1112 42.0394C48.3299 43.1596 50.2749 43.332 51.6783 42.3595C53.3155 41.1654 53.7464 38.8634 52.5523 37.2138L50.8043 34.7148L54.6081 30.2831C55.6053 29.1137 56.7993 28.1288 58.1288 27.3533L60 26.27V23.3402L57.4149 24.8051C55.9376 25.6422 54.6081 26.7255 53.5002 28.0181L49.4132 32.7575C48.1945 31.6373 46.2495 31.4649 44.8461 32.4374C43.2089 33.6315 42.778 35.9335 43.9721 37.5831L44.0336 37.7431H43.9598C42.8026 36.9307 41.2269 36.8445 39.9836 37.6816L39.9097 37.7554C38.8141 38.5187 38.2971 39.8482 38.531 41.1408L38.1371 41.4239C37.0414 40.8453 35.6873 40.8453 34.5917 41.6085C33.5823 42.3102 33.0652 43.5536 33.1514 44.6861L32.0681 45.3755C31.2556 45.1785 30.3447 45.3632 29.643 45.8433C28.7813 46.4711 28.2766 47.5051 28.3012 48.4776L27.7595 48.8223C27.4395 49.1055 26.9101 49.2286 26.467 49.1301C26.0238 49.0316 25.5806 48.7854 25.2975 48.3915C25.0144 48.0714 24.8913 47.5421 24.9897 47.0989C25.0882 46.6557 25.3344 46.2126 25.7284 45.9294L31.6003 41.5101C31.9081 41.3008 32.0804 41.0053 32.0927 40.636C32.1297 39.959 31.5511 39.3804 30.8863 39.3804C30.6278 39.3804 30.4185 39.4419 30.197 39.565L20.8166 46.3603C20.2749 46.705 19.6594 46.9019 18.9947 46.7911C18.3299 46.6803 17.739 46.348 17.3943 45.8063C16.6188 44.7846 16.8527 43.2212 17.9483 42.4579L29.126 34.4809C29.3722 34.2593 29.5445 33.9516 29.5445 33.5453C29.5568 32.9052 29.0275 32.3636 28.3874 32.3389C28.0181 32.3266 27.7226 32.462 27.4764 32.7452L16.5326 40.6606C16.2249 40.7961 16.0648 41.0176 15.8309 41.2269C14.5137 42.064 12.5687 41.8794 11.867 40.9438C11.1654 39.9343 11.3131 38.5802 12.1871 37.7308L13.2827 36.9676L25.4452 28.6705C25.753 28.4612 25.9253 28.1658 25.9376 27.7965C25.9622 27.3902 25.7653 27.0086 25.4329 26.7747C25.0021 26.467 24.5712 26.4547 24.1157 26.7255L11.0915 35.5765C11.0053 35.7243 10.8576 35.7858 10.7714 35.8597L9.5158 36.7706C8.49405 37.5462 6.93065 37.3123 6.16742 36.2167C5.39187 35.1949 5.62577 33.6315 6.72138 32.8683L31.2803 14.7846C33.2499 15.9417 34.7025 18.2684 34.7025 18.2684C37.1153 25.8268 40.119 25.8884 41.9409 24.9774C42.8888 24.5096 43.3197 23.3894 42.9873 22.38C42.0271 19.4625 41.4731 13.8121 41.4731 13.8121C40.7961 12.3471 38.6295 10.8084 36.2167 9.55273L44.1075 9.67583L46.6065 9.62659Z" fill="#1C7982"/>
</svg>
