<svg width="66" height="68" viewBox="0 0 66 68" fill="none" xmlns="http://www.w3.org/2000/svg">
<path d="M64.978 49.648C63.7642 46.8085 60.5322 45.5477 57.7426 46.4784L46.1313 50.3486C46.0978 49.8697 46.004 49.3924 45.8482 48.925C45.3623 47.4676 44.3378 46.2862 42.9632 45.5992L27.0633 37.6492C24.9128 36.5737 22.4542 36.345 20.1425 37.0056L15.3986 38.3612C14.9742 35.6051 12.587 33.4885 9.71398 33.4885H1.91733C0.858305 33.4885 0 34.3468 0 35.4059V62.248C0 63.3065 0.858305 64.1653 1.91733 64.1653H13.5486C14.6077 64.1653 15.466 63.3065 15.466 62.248V61.2199L25.3787 66.176C29.816 68.3929 35.1046 68.6531 39.8875 66.6009L61.9567 57.1985C64.8767 55.9483 66.2303 52.569 64.978 49.648ZM11.6313 60.3307H3.83466V37.3232H9.71448C10.7715 37.3232 11.6313 38.183 11.6313 39.2405V60.3307ZM60.4508 53.6724L38.3801 63.0753C34.6937 64.6566 30.5864 64.4914 27.0928 62.7458L15.466 56.9329V42.3297L21.196 40.693C22.5831 40.296 24.058 40.4334 25.3487 41.079L41.2486 49.0289C42.1943 49.5017 42.5792 50.6556 42.1064 51.6018C41.6241 52.566 40.4637 52.9245 39.5335 52.4591L30.0472 47.7162C27.627 46.5059 24.6497 47.1665 22.9685 49.2865C22.3104 50.1159 22.4492 51.3222 23.2791 51.9798C24.1084 52.6379 25.3148 52.4991 25.9728 51.6692C26.5331 50.9627 27.5252 50.7425 28.3321 51.1459L37.8183 55.8888C39.9044 56.9319 42.4634 56.6218 44.2374 55.022L58.9559 50.1159C59.9131 49.7963 61.049 50.2122 61.4524 51.1569C61.8759 52.1436 61.406 53.263 60.4508 53.6724Z" fill="#1C7982"/>
<path d="M23.8547 15.7586L43.0275 0.420464C43.3775 0.140354 43.8014 4.95911e-05 44.2253 4.95911e-05C44.6472 4.95911e-05 45.0691 0.138855 45.4182 0.41647L64.7188 15.7546C65.3574 16.2624 65.605 17.1177 65.3364 17.8876C65.0678 18.6576 64.3413 19.1734 63.5259 19.1734H57.6466V36.6845C57.6466 37.7435 56.7878 38.6018 55.7293 38.6018H32.7218C31.6628 38.6018 30.8045 37.7435 30.8045 36.6845V19.1734H25.0525C24.2381 19.1734 23.5127 18.6591 23.2435 17.8906C22.9739 17.1222 23.2191 16.2674 23.8547 15.7586ZM32.7218 15.3387C33.7804 15.3387 34.6392 16.197 34.6392 17.256V34.7671H53.812V17.256C53.812 16.197 54.6703 15.3387 55.7293 15.3387H58.0321L44.2293 4.36996L30.5184 15.3387H32.7218Z" fill="#1C7982"/>
</svg>
