<svg width="68" height="69" viewBox="0 0 68 69" fill="none" xmlns="http://www.w3.org/2000/svg">
<path d="M48.4594 19.5416C46.9948 18.0771 45.0724 17.3459 43.1499 17.3459C41.2275 17.3459 39.3039 18.0783 37.8393 19.5416C34.9114 22.4696 34.9114 27.2338 37.8393 30.1616C40.7673 33.0894 45.5315 33.0896 48.4595 30.1616C51.3872 27.2338 51.3872 22.4696 48.4594 19.5416ZM40.8941 27.1056C42.1377 28.3491 44.1599 28.3502 45.4034 27.1056C45.8455 26.6624 46.5641 26.6624 47.0061 27.1056C47.4493 27.5488 47.4493 28.2652 47.0061 28.7084C45.9428 29.7717 44.5463 30.3033 43.1488 30.3033C41.7512 30.3033 40.3545 29.7717 39.2914 28.7084C37.1649 26.5819 37.1649 23.1213 39.2914 20.9947C41.4178 18.8682 44.8797 18.8682 47.0063 20.9947C47.4495 21.4379 47.4495 22.1543 47.0063 22.5975C46.5641 23.0406 45.8455 23.0406 45.4035 22.5975C44.16 21.3539 42.1378 21.3551 40.8943 22.5975C39.6517 23.8411 39.6517 25.8622 40.8941 27.1056Z" fill="#1C7982"/>
<path d="M67.9595 1.07601C67.913 0.524044 67.4755 0.0864303 66.9234 0.0399462C66.7273 0.0240088 56.4677 -0.688924 44.4058 4.6432L63.3573 23.5949C68.6894 11.5329 67.9765 1.27217 67.9595 1.07601Z" fill="#1C7982"/>
<path d="M62.3337 25.778L42.2237 5.66797C34.6789 9.41206 26.6466 15.625 20.0393 25.8426L11.1399 25.2497C10.6457 25.201 10.1888 25.507 10.0086 25.9673L3.13375 43.5371C2.94901 44.0087 3.09975 44.5459 3.50323 44.852C3.70617 45.0062 3.94762 45.0833 4.18907 45.0833C4.42827 45.0833 4.66746 45.0085 4.8692 44.8566L10.5754 40.5775L13.5612 41.1749L18.0647 45.6784L16.8269 47.9023C15.3272 47.1644 13.5929 46.974 11.896 47.4036C9.62558 47.9795 7.76874 49.529 6.80307 51.6544L0.101529 66.3982C-0.0934388 66.8278 -0.00272843 67.3345 0.331691 67.6689C0.549369 67.8866 0.839563 68.0011 1.13427 68.0011C1.29298 68.0011 1.45275 67.9683 1.6035 67.8991L16.3473 61.1965C18.4715 60.2307 20.0211 58.3752 20.5969 56.1046C21.0413 54.3544 20.8236 52.5623 20.0245 51.0298L22.1386 49.7512L26.8268 54.4394L27.4242 57.4262L23.1451 63.1313C22.8414 63.536 22.8425 64.0948 23.1497 64.4983C23.3684 64.7863 23.7063 64.946 24.052 64.946C24.1902 64.946 24.3297 64.9211 24.4646 64.8678L42.0344 57.9931C42.4946 57.8129 42.7848 57.356 42.752 56.8618L42.1591 47.9613C52.3756 41.3539 58.5896 33.3228 62.3337 25.778ZM18.4002 55.5458C17.9944 57.1452 16.9039 58.4521 15.4099 59.1322L3.41717 64.5833L8.86829 52.5906C9.54842 51.0966 10.8554 50.0061 12.4547 49.6003C12.8752 49.4938 13.2981 49.4416 13.7153 49.4416C14.4169 49.4416 15.1015 49.5913 15.7272 49.8791C15.471 50.3393 15.2148 50.8007 14.9586 51.2609C14.6095 51.8877 14.2433 52.6574 14.9427 53.2263C15.5684 53.7342 16.2315 53.325 16.8131 52.9962C17.2472 52.7502 17.6814 52.5053 18.1156 52.2593C18.5816 53.2594 18.6871 54.4145 18.4002 55.5458ZM17.8538 29.4597C17.7098 29.7159 17.5636 29.9664 17.4219 30.2271C17.032 30.9457 16.6545 31.6803 16.2838 32.4217C16.1603 32.6676 16.0321 32.9023 15.9109 33.1528C15.436 34.1276 14.978 35.1217 14.5359 36.1318C14.4101 36.4197 14.291 36.7234 14.1675 37.0159C13.9125 37.619 13.654 38.2174 13.4114 38.8318L10.5231 38.2549C10.208 38.1914 9.87925 38.2662 9.6208 38.4601L6.69748 40.6524L11.8188 27.5669L18.662 28.0238C18.3844 28.4928 18.1214 28.9803 17.8538 29.4597ZM18.7164 49.1708L20.3487 46.2373C20.3997 46.1783 20.4654 46.1353 20.5039 46.0661L25.9052 36.261H31.7407V41.2904L18.7164 49.1708ZM27.3484 61.303L29.5407 58.3797C29.7345 58.1212 29.8082 57.7936 29.7459 57.4774L29.1689 54.5926C29.7936 54.3454 30.4022 54.0824 31.0154 53.8229C31.2966 53.7039 31.5878 53.5895 31.8645 53.4693C32.879 53.0261 33.8764 52.5669 34.8547 52.0897C35.0917 51.9741 35.3161 51.8517 35.5496 51.735C36.3035 51.3576 37.0493 50.9744 37.7782 50.5787C38.0332 50.4393 38.2781 50.2965 38.5298 50.1559C39.0137 49.8839 39.5058 49.6187 39.9785 49.3397L40.4342 56.1829L27.3484 61.303ZM43.1487 34.623C40.6459 34.623 38.1418 33.6709 36.2353 31.7643C32.4232 27.9522 32.4232 21.7507 36.2353 17.9386C40.0474 14.1265 46.2501 14.1265 50.061 17.9386C53.8731 21.7507 53.8731 27.9522 50.061 31.7643C48.1554 33.6708 45.6515 34.623 43.1487 34.623Z" fill="#1C7982"/>
</svg>
