<svg width="85" height="72" viewBox="0 0 85 72" fill="none" xmlns="http://www.w3.org/2000/svg">
<path d="M76.5654 0H25.6262C20.9835 0 17.2178 3.76573 17.2178 8.40876V16.3232H24.5149V9.93105C24.5149 8.1628 25.9447 6.73232 27.7133 6.73232H74.4784C76.2471 6.73232 77.6775 8.1628 77.6775 9.93105V40.0076C77.6775 41.7758 76.2471 43.2063 74.4784 43.2063H52.6883V53.6989C52.6883 53.6989 52.6574 67.6422 52.6521 67.7622C52.5932 69.2374 52.1657 70.6059 51.4705 71.8129H66.6121C68.3804 71.8129 69.8105 70.3825 69.8105 68.6142V64.524C69.8105 62.7556 68.3804 61.3253 66.6121 61.3253H58.8069V55.6517H76.5654C81.2084 55.6517 84.9741 51.8859 84.9741 47.2429V8.40858C84.9739 3.76555 81.2084 0 76.5654 0ZM72.4342 51.5536C70.9836 51.5536 69.8103 50.3773 69.8103 48.9277C69.8103 47.4798 70.9834 46.3071 72.4342 46.3071C73.8804 46.3071 75.0567 47.4798 75.0567 48.9277C75.0567 50.3775 73.8804 51.5536 72.4342 51.5536Z" fill="#D9B07B"/>
<path d="M45.0977 33.6628L44.7124 32.9647L42.0893 35.5903V59.4033H27.2519V64.513C27.6795 64.214 28.1683 63.9989 28.7301 63.9989C30.1776 63.9989 31.3536 65.1724 31.3536 66.6196C31.3536 68.0693 30.1776 69.2455 28.7301 69.2455C28.1683 69.2455 27.6795 69.0306 27.2519 68.7318V69.4802C27.2519 70.3709 27.0676 71.2121 26.7715 71.9999H43.8017C46.3378 71.9999 48.3975 69.9406 48.3975 67.4045V35.5626H48.308C46.9728 35.5628 45.7403 34.8339 45.0977 33.6628Z" fill="#D9B07B"/>
<path d="M15.371 27.8239H33.6748L36.6225 24.8744L35.9039 24.4774C34.6108 23.7539 33.8789 22.3372 34.0405 20.8904C34.0525 20.7928 34.0938 20.7086 34.1133 20.6139H13.6582C11.1217 20.6139 9.0624 22.6728 9.0624 25.2097V31.6429H15.371V27.8239Z" fill="#D9B07B"/>
<path d="M20.0942 35.4929H2.86606C1.28215 35.4929 0 36.7753 0 38.3592V69.0391C0 70.623 1.28215 71.9051 2.86606 71.9051H20.0942C21.6785 71.9051 22.9612 70.623 22.9612 69.0391V38.3592C22.9614 36.7753 21.6785 35.4929 20.0942 35.4929ZM11.4821 70.2707C10.2643 70.2707 9.27498 69.2821 9.27498 68.0612C9.27498 66.846 10.2641 65.86 11.4821 65.86C12.6975 65.86 13.6866 66.846 13.6866 68.0612C13.6866 69.2823 12.6975 70.2707 11.4821 70.2707ZM18.304 61.3229H4.65976V41.1947H18.3042V61.3229H18.304Z" fill="#D9B07B"/>
<path d="M53.3031 16.2812C53.1515 16.1247 52.9451 16.0436 52.7324 16.0436C52.6539 16.0436 52.5786 16.0518 52.5034 16.0741L37.4654 20.4992C37.1502 20.5886 36.9207 20.8595 36.8873 21.1865C36.8511 21.5079 37.0158 21.8235 37.3009 21.98L41.3345 24.2066L30.6354 34.9118C29.5171 36.0289 29.5171 37.8424 30.6354 38.9595C31.1935 39.516 31.9258 39.795 32.6575 39.795C33.3895 39.795 34.1214 39.516 34.6802 38.9568L45.3797 28.2515L47.6031 32.2832C47.7455 32.5399 48.0163 32.7022 48.3075 32.7022C48.3381 32.7022 48.3686 32.7022 48.3995 32.6969C48.7233 32.6631 48.9974 32.4346 49.0865 32.1239L53.5065 17.0799C53.5932 16.7925 53.5094 16.485 53.3031 16.2812Z" fill="#D9B07B"/>
</svg>
