<svg width="39" height="38" viewBox="0 0 39 38" fill="none" xmlns="http://www.w3.org/2000/svg">
<path d="M36.896 22.2809C37.1455 21.1223 37.2927 19.889 37.2927 18.6557C37.2927 9.26254 29.4815 1.6633 19.8408 1.6633C18.5741 1.6633 17.3138 1.80656 16.1175 2.04949C14.5054 0.834856 12.4966 0.112305 10.3087 0.112305C5.06292 0.118534 0.795898 4.2732 0.795898 9.38712C0.795898 11.5112 1.53799 13.467 2.77907 15.0305C2.52958 16.1891 2.38244 17.4224 2.38244 18.6557C2.38244 28.0489 10.1936 35.6481 19.8344 35.6481C21.101 35.6481 22.3613 35.5048 23.5576 35.2619C25.1697 36.4703 27.1785 37.1929 29.3536 37.1929C34.6058 37.1929 38.8728 33.0382 38.8728 27.9243C38.8792 25.8002 38.1371 23.8506 36.896 22.2809ZM20.3525 29.8552C14.7741 29.8552 10.1104 27.4384 10.1104 24.4735C10.1104 23.1467 10.8781 21.9383 12.6182 21.9383C15.2731 21.9383 15.5162 25.657 20.1094 25.657C22.2909 25.657 23.7047 24.7164 23.7047 23.4831C23.7047 21.9383 22.3421 21.6954 20.135 21.1659C14.8252 19.889 10.1232 19.3471 10.1232 13.9467C10.1232 9.04453 15.1067 7.23192 19.3993 7.23192C24.0822 7.23192 28.8162 9.04453 28.8162 11.8164C28.8162 13.2179 27.8502 14.4512 26.2381 14.4512C23.8327 14.4512 23.7559 11.6793 19.8599 11.6793C17.6785 11.6793 16.2902 12.2586 16.2902 13.5418C16.2902 15.18 18.0559 15.3482 22.163 16.27C25.6815 17.0424 29.8718 18.4875 29.8718 22.692C29.8782 27.5879 25.0226 29.8552 20.3525 29.8552Z" fill="white"/>
</svg>
