<svg width="51" height="51" viewBox="0 0 51 51" fill="none" xmlns="http://www.w3.org/2000/svg">
<path fill-rule="evenodd" clip-rule="evenodd" d="M48.6176 24.7329C46.9485 23.3673 44.369 23.2155 42.5482 25.0363L38.2996 29.7402C37.6926 27.9193 36.0236 26.7054 34.051 26.7054H26.3124C25.7055 26.7054 25.5538 26.5537 24.4916 25.6433C20.6982 22.3051 14.7805 22.3051 10.9871 25.6433L8.10414 28.0711C6.89025 27.4641 5.3729 27.3124 4.00727 28.0711L0.820832 29.7402C0.0621525 30.0436 -0.241333 30.954 0.213874 31.7127L9.01456 49.3141C9.31803 50.0728 10.2285 50.3762 10.9871 49.921L14.1736 48.2519C15.8427 47.4933 16.6014 45.8242 16.6014 44.1551H33.8992C37.0857 44.1551 40.1204 42.6377 42.093 40.0582L49.0728 30.6506C50.7419 28.8297 50.4385 26.2502 48.6176 24.7329ZM12.9597 45.6724L10.9871 46.5828L3.55206 31.561L5.52463 30.6506C6.28331 30.3471 7.19373 30.6506 7.4972 31.2575L13.7184 43.5481C14.0219 44.4585 13.7184 45.369 12.9597 45.6724ZM46.9485 28.9815L39.9687 38.3891C38.6031 40.2099 36.327 41.2721 34.051 41.2721H15.6909L10.2285 30.3471L12.9597 27.9193C15.691 25.4916 19.9395 25.4916 22.6708 27.9193C24.3399 29.285 25.2503 29.5884 26.3124 29.5884H34.051C34.8097 29.5884 35.5683 30.1954 35.5683 31.1058C35.5683 31.8645 34.9614 32.6231 34.051 32.6231H26.6159C25.8573 32.6231 25.0986 33.2301 25.0986 34.1405C25.0986 34.8992 25.7055 35.6579 26.6159 35.6579H35.1132C36.327 35.6579 37.5409 35.2027 38.2996 34.2922L44.8242 27.3124C45.4312 26.7054 46.3416 26.7054 46.9485 27.1606C47.4037 27.4641 47.4037 28.3745 46.9485 28.9815Z" fill="#094E4B"/>
<path fill-rule="evenodd" clip-rule="evenodd" d="M31.016 10.0146C32.0782 8.95243 32.6851 7.5868 32.6851 5.9177C32.6851 2.73125 30.1056 0 26.7674 0C23.5809 0 20.8497 2.73125 20.8497 5.9177C20.8497 7.43506 21.4566 8.80069 22.5188 10.0146C19.7875 11.5319 17.9667 14.4149 17.9667 17.7531V19.2705C17.9667 20.0291 18.5736 20.7878 19.4841 20.7878H34.2025C34.9611 20.7878 35.7198 20.1809 35.7198 19.2705V17.7531C35.5681 14.5667 33.7472 11.5319 31.016 10.0146ZM26.7674 2.88298C28.2848 2.88298 29.6504 4.24861 29.6504 5.9177C29.6504 7.5868 28.2848 8.80069 26.7674 8.80069C25.0983 8.80069 23.7327 7.43506 23.7327 5.9177C23.7327 4.40034 25.0983 2.88298 26.7674 2.88298ZM20.8497 17.7531C20.8497 14.5667 23.5809 11.8354 26.7674 11.8354C29.9538 11.8354 32.6851 14.5667 32.6851 17.7531H20.8497Z" fill="#094E4B"/>
</svg>
