<svg width="30" height="30" viewBox="0 0 30 30" fill="none" xmlns="http://www.w3.org/2000/svg">
<path fill-rule="evenodd" clip-rule="evenodd" d="M24.3259 22.5385C23.9698 22.1795 23.6137 22.1795 23.2576 22.1795L22.7234 21.641C24.682 19.3077 25.7504 16.4359 25.7504 13.3846C25.7504 9.97436 24.504 6.92308 22.1892 4.58974C19.8744 2.25641 16.6693 1 13.4642 1C10.0811 1 7.05405 2.25641 4.73927 4.58974C2.42448 6.92308 1 10.1538 1 13.3846C1 16.7949 2.24642 19.8462 4.73927 22.1795C7.05405 24.5128 10.2591 25.7692 13.4642 25.7692C16.4913 25.7692 19.3402 24.6923 21.655 22.7179L22.1892 23.2564C22.1892 23.6154 22.1892 23.9744 22.5453 24.3333L26.8188 28.641C26.9968 28.8205 27.3529 29 27.7091 29C28.0652 29 28.4213 28.8205 28.5994 28.641C29.1335 28.1026 29.1335 27.3846 28.5994 26.8462L24.3259 22.5385ZM20.4086 20.2051C18.628 22.1795 16.1351 23.0769 13.4642 23.0769C10.7933 23.0769 8.30047 22 6.51987 20.2051C4.73927 18.4103 3.67091 15.8974 3.67091 13.2051C3.67091 10.5128 4.73927 8 6.51987 6.20513C8.30047 4.23077 10.7933 3.33334 13.4642 3.33334C16.1351 3.33334 18.628 4.41026 20.4086 6.20513C22.1892 8 23.2576 10.5128 23.2576 13.2051C23.2576 15.8974 22.1892 18.4103 20.4086 20.2051Z" fill="#094E4B" stroke="#094E4B" stroke-width="0.5669" stroke-miterlimit="22.9256"/>
</svg>
